<mxfile host="app.diagrams.net" agent="Mozilla/5.0 (Windows NT 10.0; Win64; x64) AppleWebKit/537.36 (KHTML, like Gecko) Chrome/129.0.0.0 Safari/537.36" version="24.7.16">
  <diagram name="Página-1" id="EZEAhGIKxOTPEhU6mV8w">
    <mxGraphModel dx="2327" dy="1982" grid="1" gridSize="10" guides="1" tooltips="1" connect="1" arrows="1" fold="1" page="1" pageScale="1" pageWidth="827" pageHeight="1169" math="0" shadow="0">
      <root>
        <mxCell id="0" />
        <mxCell id="1" parent="0" />
        <mxCell id="kCBjo1Qa4K1AtAQlMnZT-72" style="edgeStyle=none;rounded=0;orthogonalLoop=1;jettySize=auto;html=1;exitX=0.5;exitY=1;exitDx=0;exitDy=0;exitPerimeter=0;" edge="1" parent="1">
          <mxGeometry relative="1" as="geometry">
            <mxPoint x="135" y="170" as="sourcePoint" />
            <mxPoint x="135" y="170" as="targetPoint" />
          </mxGeometry>
        </mxCell>
        <mxCell id="kCBjo1Qa4K1AtAQlMnZT-75" value="" style="edgeStyle=elbowEdgeStyle;endArrow=oval;html=1;rounded=0;endSize=8;startSize=8;startArrow=none;startFill=0;endFill=1;exitX=0;exitY=0;exitDx=0;exitDy=0;strokeColor=default;jumpStyle=none;" edge="1" parent="1" source="kCBjo1Qa4K1AtAQlMnZT-86">
          <mxGeometry width="50" height="50" relative="1" as="geometry">
            <mxPoint x="-90" y="135" as="sourcePoint" />
            <mxPoint x="-40" y="-30" as="targetPoint" />
            <Array as="points">
              <mxPoint x="-90" y="70" />
              <mxPoint x="-90" y="-5" />
            </Array>
          </mxGeometry>
        </mxCell>
        <mxCell id="kCBjo1Qa4K1AtAQlMnZT-86" value="&lt;h3&gt;&lt;font style=&quot;font-size: 16px;&quot;&gt;Médico&lt;/font&gt;&lt;/h3&gt;" style="rounded=0;whiteSpace=wrap;html=1;" vertex="1" parent="1">
          <mxGeometry x="-90" y="160" width="120" height="60" as="geometry" />
        </mxCell>
        <mxCell id="kCBjo1Qa4K1AtAQlMnZT-87" value="" style="endArrow=none;html=1;rounded=0;startArrow=oval;startFill=0;" edge="1" parent="1">
          <mxGeometry width="50" height="50" relative="1" as="geometry">
            <mxPoint x="-40" y="124.5" as="sourcePoint" />
            <mxPoint x="-90" y="124.5" as="targetPoint" />
            <Array as="points" />
          </mxGeometry>
        </mxCell>
        <mxCell id="kCBjo1Qa4K1AtAQlMnZT-88" value="" style="endArrow=none;html=1;rounded=0;startArrow=oval;startFill=0;" edge="1" parent="1">
          <mxGeometry width="50" height="50" relative="1" as="geometry">
            <mxPoint x="-40" y="94.5" as="sourcePoint" />
            <mxPoint x="-90" y="94.5" as="targetPoint" />
            <Array as="points">
              <mxPoint x="-60" y="94.5" />
            </Array>
          </mxGeometry>
        </mxCell>
        <mxCell id="kCBjo1Qa4K1AtAQlMnZT-89" value="" style="endArrow=none;html=1;rounded=0;startArrow=oval;startFill=0;" edge="1" parent="1">
          <mxGeometry width="50" height="50" relative="1" as="geometry">
            <mxPoint x="-40" y="64.5" as="sourcePoint" />
            <mxPoint x="-90" y="64.5" as="targetPoint" />
            <Array as="points">
              <mxPoint x="-60" y="64.5" />
            </Array>
          </mxGeometry>
        </mxCell>
        <mxCell id="kCBjo1Qa4K1AtAQlMnZT-90" value="" style="endArrow=none;html=1;rounded=0;startArrow=oval;startFill=0;" edge="1" parent="1">
          <mxGeometry width="50" height="50" relative="1" as="geometry">
            <mxPoint x="-40" y="34.5" as="sourcePoint" />
            <mxPoint x="-90" y="34.5" as="targetPoint" />
            <Array as="points" />
          </mxGeometry>
        </mxCell>
        <mxCell id="kCBjo1Qa4K1AtAQlMnZT-91" value="" style="endArrow=none;html=1;rounded=0;endFill=0;startArrow=oval;startFill=0;" edge="1" parent="1">
          <mxGeometry width="50" height="50" relative="1" as="geometry">
            <mxPoint x="-40" y="4.5" as="sourcePoint" />
            <mxPoint x="-90" y="4.5" as="targetPoint" />
            <Array as="points" />
          </mxGeometry>
        </mxCell>
        <mxCell id="kCBjo1Qa4K1AtAQlMnZT-92" value="rua" style="text;html=1;align=center;verticalAlign=middle;whiteSpace=wrap;rounded=0;fontSize=14;" vertex="1" parent="1">
          <mxGeometry x="160" y="-70" width="30" height="30" as="geometry" />
        </mxCell>
        <mxCell id="kCBjo1Qa4K1AtAQlMnZT-93" value="&lt;font style=&quot;font-size: 14px;&quot;&gt;Endereço&lt;/font&gt;" style="text;html=1;align=center;verticalAlign=middle;whiteSpace=wrap;rounded=0;" vertex="1" parent="1">
          <mxGeometry x="-30" y="110" width="60" height="30" as="geometry" />
        </mxCell>
        <mxCell id="kCBjo1Qa4K1AtAQlMnZT-94" value="&lt;font style=&quot;font-size: 14px;&quot;&gt;email&lt;/font&gt;" style="text;html=1;align=center;verticalAlign=middle;whiteSpace=wrap;rounded=0;" vertex="1" parent="1">
          <mxGeometry x="-40" y="80" width="60" height="30" as="geometry" />
        </mxCell>
        <mxCell id="kCBjo1Qa4K1AtAQlMnZT-95" value="&lt;font style=&quot;font-size: 14px;&quot;&gt;Nome&lt;/font&gt;" style="text;html=1;align=center;verticalAlign=middle;whiteSpace=wrap;rounded=0;" vertex="1" parent="1">
          <mxGeometry x="-40" y="20" width="60" height="30" as="geometry" />
        </mxCell>
        <mxCell id="kCBjo1Qa4K1AtAQlMnZT-96" value="&lt;font style=&quot;font-size: 14px;&quot;&gt;Especialidade&lt;/font&gt;" style="text;html=1;align=center;verticalAlign=middle;whiteSpace=wrap;rounded=0;" vertex="1" parent="1">
          <mxGeometry x="-20" y="-10" width="60" height="30" as="geometry" />
        </mxCell>
        <mxCell id="kCBjo1Qa4K1AtAQlMnZT-97" value="&lt;font style=&quot;font-size: 14px;&quot;&gt;CRM (&lt;b&gt;PK&lt;/b&gt;)&lt;/font&gt;" style="text;html=1;align=center;verticalAlign=middle;whiteSpace=wrap;rounded=0;" vertex="1" parent="1">
          <mxGeometry x="-35" y="-40" width="70" height="30" as="geometry" />
        </mxCell>
        <mxCell id="kCBjo1Qa4K1AtAQlMnZT-98" value="&lt;font style=&quot;font-size: 14px;&quot;&gt;telefone&lt;/font&gt;" style="text;html=1;align=center;verticalAlign=middle;resizable=0;points=[];autosize=1;strokeColor=none;fillColor=none;" vertex="1" parent="1">
          <mxGeometry x="-40" y="50" width="70" height="30" as="geometry" />
        </mxCell>
        <mxCell id="kCBjo1Qa4K1AtAQlMnZT-100" value="" style="endArrow=none;html=1;rounded=0;startArrow=oval;startFill=0;" edge="1" parent="1">
          <mxGeometry width="50" height="50" relative="1" as="geometry">
            <mxPoint x="150" y="125" as="sourcePoint" />
            <mxPoint x="40" y="124.5" as="targetPoint" />
            <Array as="points">
              <mxPoint x="80" y="125" />
            </Array>
          </mxGeometry>
        </mxCell>
        <mxCell id="kCBjo1Qa4K1AtAQlMnZT-102" value="" style="edgeStyle=elbowEdgeStyle;endArrow=none;html=1;rounded=0;endSize=8;startSize=8;startArrow=none;startFill=0;endFill=0;strokeColor=default;jumpStyle=none;" edge="1" parent="1">
          <mxGeometry width="50" height="50" relative="1" as="geometry">
            <mxPoint x="70" y="120" as="sourcePoint" />
            <mxPoint x="70" y="-60" as="targetPoint" />
            <Array as="points">
              <mxPoint x="70" y="30" />
              <mxPoint x="70" y="-45" />
            </Array>
          </mxGeometry>
        </mxCell>
        <mxCell id="kCBjo1Qa4K1AtAQlMnZT-103" value="número" style="text;html=1;align=center;verticalAlign=middle;whiteSpace=wrap;rounded=0;fontSize=14;" vertex="1" parent="1">
          <mxGeometry x="160" y="-40" width="50" height="30" as="geometry" />
        </mxCell>
        <mxCell id="kCBjo1Qa4K1AtAQlMnZT-104" value="complemento" style="text;html=1;align=center;verticalAlign=middle;whiteSpace=wrap;rounded=0;fontSize=14;" vertex="1" parent="1">
          <mxGeometry x="160" y="-10" width="80" height="30" as="geometry" />
        </mxCell>
        <mxCell id="kCBjo1Qa4K1AtAQlMnZT-105" value="bairro" style="text;html=1;align=center;verticalAlign=middle;whiteSpace=wrap;rounded=0;fontSize=14;" vertex="1" parent="1">
          <mxGeometry x="160" y="20" width="40" height="30" as="geometry" />
        </mxCell>
        <mxCell id="kCBjo1Qa4K1AtAQlMnZT-106" value="CEP" style="text;html=1;align=center;verticalAlign=middle;whiteSpace=wrap;rounded=0;fontSize=14;" vertex="1" parent="1">
          <mxGeometry x="160" y="50" width="30" height="30" as="geometry" />
        </mxCell>
        <mxCell id="kCBjo1Qa4K1AtAQlMnZT-107" value="cidade" style="text;html=1;align=center;verticalAlign=middle;whiteSpace=wrap;rounded=0;fontSize=14;" vertex="1" parent="1">
          <mxGeometry x="160" y="80" width="40" height="30" as="geometry" />
        </mxCell>
        <mxCell id="kCBjo1Qa4K1AtAQlMnZT-108" value="estado" style="text;html=1;align=center;verticalAlign=middle;whiteSpace=wrap;rounded=0;fontSize=14;" vertex="1" parent="1">
          <mxGeometry x="160" y="110" width="40" height="30" as="geometry" />
        </mxCell>
        <mxCell id="kCBjo1Qa4K1AtAQlMnZT-109" value="" style="endArrow=none;html=1;rounded=0;startArrow=oval;startFill=0;" edge="1" parent="1">
          <mxGeometry width="50" height="50" relative="1" as="geometry">
            <mxPoint x="150" y="95" as="sourcePoint" />
            <mxPoint x="70" y="94.5" as="targetPoint" />
            <Array as="points">
              <mxPoint x="110" y="95" />
            </Array>
          </mxGeometry>
        </mxCell>
        <mxCell id="kCBjo1Qa4K1AtAQlMnZT-110" value="" style="endArrow=none;html=1;rounded=0;startArrow=oval;startFill=0;" edge="1" parent="1">
          <mxGeometry width="50" height="50" relative="1" as="geometry">
            <mxPoint x="150" y="35" as="sourcePoint" />
            <mxPoint x="70" y="34.5" as="targetPoint" />
            <Array as="points">
              <mxPoint x="110" y="35" />
            </Array>
          </mxGeometry>
        </mxCell>
        <mxCell id="kCBjo1Qa4K1AtAQlMnZT-111" value="" style="endArrow=none;html=1;rounded=0;startArrow=oval;startFill=0;" edge="1" parent="1">
          <mxGeometry width="50" height="50" relative="1" as="geometry">
            <mxPoint x="150" y="5" as="sourcePoint" />
            <mxPoint x="70" y="4.5" as="targetPoint" />
            <Array as="points">
              <mxPoint x="110" y="5" />
            </Array>
          </mxGeometry>
        </mxCell>
        <mxCell id="kCBjo1Qa4K1AtAQlMnZT-112" value="" style="endArrow=none;html=1;rounded=0;startArrow=oval;startFill=0;" edge="1" parent="1">
          <mxGeometry width="50" height="50" relative="1" as="geometry">
            <mxPoint x="150" y="-25" as="sourcePoint" />
            <mxPoint x="70" y="-25.5" as="targetPoint" />
            <Array as="points">
              <mxPoint x="110" y="-25" />
            </Array>
          </mxGeometry>
        </mxCell>
        <mxCell id="kCBjo1Qa4K1AtAQlMnZT-113" value="" style="endArrow=none;html=1;rounded=0;startArrow=oval;startFill=0;" edge="1" parent="1">
          <mxGeometry width="50" height="50" relative="1" as="geometry">
            <mxPoint x="150" y="65" as="sourcePoint" />
            <mxPoint x="70" y="64.5" as="targetPoint" />
            <Array as="points">
              <mxPoint x="110" y="65" />
            </Array>
          </mxGeometry>
        </mxCell>
        <mxCell id="kCBjo1Qa4K1AtAQlMnZT-114" value="" style="endArrow=none;html=1;rounded=0;startArrow=oval;startFill=0;" edge="1" parent="1">
          <mxGeometry width="50" height="50" relative="1" as="geometry">
            <mxPoint x="150" y="-55" as="sourcePoint" />
            <mxPoint x="70" y="-55.5" as="targetPoint" />
            <Array as="points">
              <mxPoint x="110" y="-55" />
            </Array>
          </mxGeometry>
        </mxCell>
        <mxCell id="kCBjo1Qa4K1AtAQlMnZT-116" value="&lt;h3&gt;&lt;font style=&quot;font-size: 16px;&quot;&gt;Paciente&lt;/font&gt;&lt;/h3&gt;" style="rounded=0;whiteSpace=wrap;html=1;" vertex="1" parent="1">
          <mxGeometry x="440" y="470" width="120" height="60" as="geometry" />
        </mxCell>
        <mxCell id="kCBjo1Qa4K1AtAQlMnZT-216" value="" style="edgeStyle=none;rounded=0;orthogonalLoop=1;jettySize=auto;html=1;" edge="1" parent="1" source="kCBjo1Qa4K1AtAQlMnZT-117" target="kCBjo1Qa4K1AtAQlMnZT-179">
          <mxGeometry relative="1" as="geometry" />
        </mxCell>
        <mxCell id="kCBjo1Qa4K1AtAQlMnZT-117" value="&lt;h3&gt;&lt;font style=&quot;font-size: 16px;&quot;&gt;Consulta&lt;/font&gt;&lt;/h3&gt;" style="rounded=0;whiteSpace=wrap;html=1;" vertex="1" parent="1">
          <mxGeometry x="-90" y="470" width="120" height="60" as="geometry" />
        </mxCell>
        <mxCell id="kCBjo1Qa4K1AtAQlMnZT-120" value="" style="endArrow=none;html=1;rounded=0;startArrow=oval;startFill=0;" edge="1" parent="1">
          <mxGeometry width="50" height="50" relative="1" as="geometry">
            <mxPoint x="-30" y="654.29" as="sourcePoint" />
            <mxPoint x="-90" y="654.29" as="targetPoint" />
            <Array as="points">
              <mxPoint x="-50" y="654.79" />
            </Array>
          </mxGeometry>
        </mxCell>
        <mxCell id="kCBjo1Qa4K1AtAQlMnZT-122" value="" style="endArrow=none;html=1;rounded=0;startArrow=oval;startFill=0;" edge="1" parent="1">
          <mxGeometry width="50" height="50" relative="1" as="geometry">
            <mxPoint x="-30" y="760" as="sourcePoint" />
            <mxPoint x="-90" y="760" as="targetPoint" />
            <Array as="points">
              <mxPoint x="-50" y="760.5" />
            </Array>
          </mxGeometry>
        </mxCell>
        <mxCell id="kCBjo1Qa4K1AtAQlMnZT-123" value="" style="endArrow=none;html=1;rounded=0;startArrow=none;startFill=0;" edge="1" parent="1">
          <mxGeometry width="50" height="50" relative="1" as="geometry">
            <mxPoint x="-90" y="530" as="sourcePoint" />
            <mxPoint x="-90" y="760" as="targetPoint" />
            <Array as="points">
              <mxPoint x="-90" y="600" />
            </Array>
          </mxGeometry>
        </mxCell>
        <mxCell id="kCBjo1Qa4K1AtAQlMnZT-125" value="Identificação da consulta (&lt;b&gt;PK&lt;/b&gt;)" style="text;html=1;align=center;verticalAlign=middle;whiteSpace=wrap;rounded=0;fontSize=14;" vertex="1" parent="1">
          <mxGeometry x="-30" y="560" width="120" height="30" as="geometry" />
        </mxCell>
        <mxCell id="kCBjo1Qa4K1AtAQlMnZT-126" value="Data" style="text;html=1;align=center;verticalAlign=middle;whiteSpace=wrap;rounded=0;fontSize=14;" vertex="1" parent="1">
          <mxGeometry x="-25" y="710" width="40" height="30" as="geometry" />
        </mxCell>
        <mxCell id="kCBjo1Qa4K1AtAQlMnZT-127" value="Horário" style="text;html=1;align=center;verticalAlign=middle;whiteSpace=wrap;rounded=0;fontSize=14;" vertex="1" parent="1">
          <mxGeometry x="-20" y="740" width="45" height="30" as="geometry" />
        </mxCell>
        <mxCell id="kCBjo1Qa4K1AtAQlMnZT-128" value="" style="endArrow=none;html=1;rounded=0;startArrow=oval;startFill=1;" edge="1" parent="1">
          <mxGeometry width="50" height="50" relative="1" as="geometry">
            <mxPoint x="-30" y="570" as="sourcePoint" />
            <mxPoint x="-90" y="570" as="targetPoint" />
            <Array as="points">
              <mxPoint x="-50" y="570.5" />
            </Array>
          </mxGeometry>
        </mxCell>
        <mxCell id="kCBjo1Qa4K1AtAQlMnZT-130" value="" style="endArrow=none;html=1;rounded=0;startArrow=none;startFill=0;" edge="1" parent="1">
          <mxGeometry width="50" height="50" relative="1" as="geometry">
            <mxPoint x="440" y="530" as="sourcePoint" />
            <mxPoint x="440" y="730" as="targetPoint" />
            <Array as="points">
              <mxPoint x="440" y="600" />
            </Array>
          </mxGeometry>
        </mxCell>
        <mxCell id="kCBjo1Qa4K1AtAQlMnZT-131" value="" style="endArrow=none;html=1;rounded=0;startArrow=oval;startFill=1;" edge="1" parent="1">
          <mxGeometry width="50" height="50" relative="1" as="geometry">
            <mxPoint x="500" y="569.41" as="sourcePoint" />
            <mxPoint x="440" y="569.41" as="targetPoint" />
            <Array as="points">
              <mxPoint x="480" y="569.91" />
            </Array>
          </mxGeometry>
        </mxCell>
        <mxCell id="kCBjo1Qa4K1AtAQlMnZT-132" value="" style="endArrow=none;html=1;rounded=0;startArrow=oval;startFill=0;" edge="1" parent="1">
          <mxGeometry width="50" height="50" relative="1" as="geometry">
            <mxPoint x="500" y="644.41" as="sourcePoint" />
            <mxPoint x="440" y="644.41" as="targetPoint" />
            <Array as="points">
              <mxPoint x="480" y="644.91" />
            </Array>
          </mxGeometry>
        </mxCell>
        <mxCell id="kCBjo1Qa4K1AtAQlMnZT-133" value="" style="endArrow=none;html=1;rounded=0;startArrow=oval;startFill=0;" edge="1" parent="1">
          <mxGeometry width="50" height="50" relative="1" as="geometry">
            <mxPoint x="500" y="684.41" as="sourcePoint" />
            <mxPoint x="440" y="684.41" as="targetPoint" />
            <Array as="points">
              <mxPoint x="480" y="684.91" />
            </Array>
          </mxGeometry>
        </mxCell>
        <mxCell id="kCBjo1Qa4K1AtAQlMnZT-134" value="" style="endArrow=none;html=1;rounded=0;startArrow=oval;startFill=0;" edge="1" parent="1">
          <mxGeometry width="50" height="50" relative="1" as="geometry">
            <mxPoint x="500" y="724.41" as="sourcePoint" />
            <mxPoint x="440" y="724.41" as="targetPoint" />
            <Array as="points">
              <mxPoint x="480" y="724.91" />
            </Array>
          </mxGeometry>
        </mxCell>
        <mxCell id="kCBjo1Qa4K1AtAQlMnZT-135" value="" style="endArrow=none;html=1;rounded=0;startArrow=oval;startFill=0;" edge="1" parent="1">
          <mxGeometry width="50" height="50" relative="1" as="geometry">
            <mxPoint x="500" y="604.41" as="sourcePoint" />
            <mxPoint x="440" y="604.41" as="targetPoint" />
            <Array as="points">
              <mxPoint x="480" y="604.91" />
            </Array>
          </mxGeometry>
        </mxCell>
        <mxCell id="kCBjo1Qa4K1AtAQlMnZT-136" value="Endereço" style="text;html=1;align=center;verticalAlign=middle;whiteSpace=wrap;rounded=0;fontSize=14;" vertex="1" parent="1">
          <mxGeometry x="500" y="710" width="100" height="30" as="geometry" />
        </mxCell>
        <mxCell id="kCBjo1Qa4K1AtAQlMnZT-137" value="Email" style="text;html=1;align=center;verticalAlign=middle;whiteSpace=wrap;rounded=0;fontSize=14;" vertex="1" parent="1">
          <mxGeometry x="500" y="670" width="70" height="30" as="geometry" />
        </mxCell>
        <mxCell id="kCBjo1Qa4K1AtAQlMnZT-138" value="Telefone" style="text;html=1;align=center;verticalAlign=middle;whiteSpace=wrap;rounded=0;fontSize=14;" vertex="1" parent="1">
          <mxGeometry x="510" y="630" width="70" height="30" as="geometry" />
        </mxCell>
        <mxCell id="kCBjo1Qa4K1AtAQlMnZT-139" value="Nome" style="text;html=1;align=center;verticalAlign=middle;whiteSpace=wrap;rounded=0;fontSize=14;" vertex="1" parent="1">
          <mxGeometry x="510" y="590" width="60" height="30" as="geometry" />
        </mxCell>
        <mxCell id="kCBjo1Qa4K1AtAQlMnZT-140" value="CPF" style="text;html=1;align=center;verticalAlign=middle;whiteSpace=wrap;rounded=0;fontSize=14;" vertex="1" parent="1">
          <mxGeometry x="510" y="555" width="50" height="30" as="geometry" />
        </mxCell>
        <mxCell id="kCBjo1Qa4K1AtAQlMnZT-142" value="" style="endArrow=none;html=1;rounded=0;startArrow=oval;startFill=0;endFill=0;" edge="1" parent="1">
          <mxGeometry width="50" height="50" relative="1" as="geometry">
            <mxPoint x="680" y="724.41" as="sourcePoint" />
            <mxPoint x="580" y="724.8199999999999" as="targetPoint" />
            <Array as="points" />
          </mxGeometry>
        </mxCell>
        <mxCell id="kCBjo1Qa4K1AtAQlMnZT-143" value="" style="endArrow=none;html=1;rounded=0;startArrow=none;startFill=0;" edge="1" parent="1">
          <mxGeometry width="50" height="50" relative="1" as="geometry">
            <mxPoint x="620" y="485" as="sourcePoint" />
            <mxPoint x="620" y="725" as="targetPoint" />
            <Array as="points">
              <mxPoint x="620" y="595" />
            </Array>
          </mxGeometry>
        </mxCell>
        <mxCell id="kCBjo1Qa4K1AtAQlMnZT-144" value="Estado" style="text;html=1;align=center;verticalAlign=middle;whiteSpace=wrap;rounded=0;fontSize=14;" vertex="1" parent="1">
          <mxGeometry x="670" y="710" width="80" height="30" as="geometry" />
        </mxCell>
        <mxCell id="kCBjo1Qa4K1AtAQlMnZT-145" value="Cidade" style="text;html=1;align=center;verticalAlign=middle;whiteSpace=wrap;rounded=0;fontSize=14;" vertex="1" parent="1">
          <mxGeometry x="670" y="670" width="80" height="30" as="geometry" />
        </mxCell>
        <mxCell id="kCBjo1Qa4K1AtAQlMnZT-146" value="Bairro" style="text;html=1;align=center;verticalAlign=middle;whiteSpace=wrap;rounded=0;fontSize=14;" vertex="1" parent="1">
          <mxGeometry x="670" y="590" width="80" height="30" as="geometry" />
        </mxCell>
        <mxCell id="kCBjo1Qa4K1AtAQlMnZT-147" value="CEP" style="text;html=1;align=center;verticalAlign=middle;whiteSpace=wrap;rounded=0;fontSize=14;" vertex="1" parent="1">
          <mxGeometry x="670" y="630" width="70" height="30" as="geometry" />
        </mxCell>
        <mxCell id="kCBjo1Qa4K1AtAQlMnZT-148" value="Complemento" style="text;html=1;align=center;verticalAlign=middle;whiteSpace=wrap;rounded=0;fontSize=14;" vertex="1" parent="1">
          <mxGeometry x="670" y="550" width="130" height="30" as="geometry" />
        </mxCell>
        <mxCell id="kCBjo1Qa4K1AtAQlMnZT-149" value="Número" style="text;html=1;align=center;verticalAlign=middle;whiteSpace=wrap;rounded=0;fontSize=14;" vertex="1" parent="1">
          <mxGeometry x="670" y="510" width="90" height="30" as="geometry" />
        </mxCell>
        <mxCell id="kCBjo1Qa4K1AtAQlMnZT-150" value="Rua" style="text;html=1;align=center;verticalAlign=middle;whiteSpace=wrap;rounded=0;fontSize=14;" vertex="1" parent="1">
          <mxGeometry x="670" y="470" width="70" height="30" as="geometry" />
        </mxCell>
        <mxCell id="kCBjo1Qa4K1AtAQlMnZT-155" value="" style="endArrow=none;html=1;rounded=0;startArrow=oval;startFill=0;" edge="1" parent="1">
          <mxGeometry width="50" height="50" relative="1" as="geometry">
            <mxPoint x="680" y="684.41" as="sourcePoint" />
            <mxPoint x="620" y="684.41" as="targetPoint" />
            <Array as="points">
              <mxPoint x="660" y="684.91" />
            </Array>
          </mxGeometry>
        </mxCell>
        <mxCell id="kCBjo1Qa4K1AtAQlMnZT-156" value="" style="endArrow=none;html=1;rounded=0;startArrow=oval;startFill=0;" edge="1" parent="1">
          <mxGeometry width="50" height="50" relative="1" as="geometry">
            <mxPoint x="680" y="524.41" as="sourcePoint" />
            <mxPoint x="620" y="524.41" as="targetPoint" />
            <Array as="points">
              <mxPoint x="660" y="524.91" />
            </Array>
          </mxGeometry>
        </mxCell>
        <mxCell id="kCBjo1Qa4K1AtAQlMnZT-157" value="" style="endArrow=none;html=1;rounded=0;startArrow=oval;startFill=0;" edge="1" parent="1">
          <mxGeometry width="50" height="50" relative="1" as="geometry">
            <mxPoint x="680" y="564.41" as="sourcePoint" />
            <mxPoint x="620" y="564.41" as="targetPoint" />
            <Array as="points">
              <mxPoint x="660" y="564.91" />
            </Array>
          </mxGeometry>
        </mxCell>
        <mxCell id="kCBjo1Qa4K1AtAQlMnZT-158" value="" style="endArrow=none;html=1;rounded=0;startArrow=oval;startFill=0;" edge="1" parent="1">
          <mxGeometry width="50" height="50" relative="1" as="geometry">
            <mxPoint x="680" y="604.41" as="sourcePoint" />
            <mxPoint x="620" y="604.41" as="targetPoint" />
            <Array as="points">
              <mxPoint x="660" y="604.91" />
            </Array>
          </mxGeometry>
        </mxCell>
        <mxCell id="kCBjo1Qa4K1AtAQlMnZT-159" value="" style="endArrow=none;html=1;rounded=0;startArrow=oval;startFill=0;" edge="1" parent="1">
          <mxGeometry width="50" height="50" relative="1" as="geometry">
            <mxPoint x="680" y="644.41" as="sourcePoint" />
            <mxPoint x="620" y="644.41" as="targetPoint" />
            <Array as="points">
              <mxPoint x="660" y="644.91" />
            </Array>
          </mxGeometry>
        </mxCell>
        <mxCell id="kCBjo1Qa4K1AtAQlMnZT-160" value="" style="endArrow=none;html=1;rounded=0;startArrow=oval;startFill=0;" edge="1" parent="1">
          <mxGeometry width="50" height="50" relative="1" as="geometry">
            <mxPoint x="680" y="484.40999999999997" as="sourcePoint" />
            <mxPoint x="620" y="484.40999999999997" as="targetPoint" />
            <Array as="points">
              <mxPoint x="660" y="484.90999999999997" />
            </Array>
          </mxGeometry>
        </mxCell>
        <mxCell id="kCBjo1Qa4K1AtAQlMnZT-162" value="" style="endArrow=none;html=1;rounded=0;startArrow=none;startFill=0;" edge="1" parent="1">
          <mxGeometry width="50" height="50" relative="1" as="geometry">
            <mxPoint x="440" y="-50" as="sourcePoint" />
            <mxPoint x="440" y="160" as="targetPoint" />
            <Array as="points">
              <mxPoint x="440" y="30" />
            </Array>
          </mxGeometry>
        </mxCell>
        <mxCell id="kCBjo1Qa4K1AtAQlMnZT-163" value="" style="endArrow=none;html=1;rounded=0;startArrow=oval;startFill=1;" edge="1" parent="1">
          <mxGeometry width="50" height="50" relative="1" as="geometry">
            <mxPoint x="500" y="-50.00000000000006" as="sourcePoint" />
            <mxPoint x="440" y="-50.00000000000006" as="targetPoint" />
            <Array as="points">
              <mxPoint x="480" y="-49.50000000000006" />
            </Array>
          </mxGeometry>
        </mxCell>
        <mxCell id="kCBjo1Qa4K1AtAQlMnZT-164" value="" style="endArrow=none;html=1;rounded=0;startArrow=oval;startFill=0;" edge="1" parent="1">
          <mxGeometry width="50" height="50" relative="1" as="geometry">
            <mxPoint x="500" y="24.41" as="sourcePoint" />
            <mxPoint x="440" y="24.41" as="targetPoint" />
            <Array as="points">
              <mxPoint x="480" y="24.91" />
            </Array>
          </mxGeometry>
        </mxCell>
        <mxCell id="kCBjo1Qa4K1AtAQlMnZT-165" value="" style="endArrow=none;html=1;rounded=0;startArrow=oval;startFill=0;" edge="1" parent="1">
          <mxGeometry width="50" height="50" relative="1" as="geometry">
            <mxPoint x="500" y="84.41" as="sourcePoint" />
            <mxPoint x="440" y="84.41" as="targetPoint" />
            <Array as="points">
              <mxPoint x="480" y="84.91" />
            </Array>
          </mxGeometry>
        </mxCell>
        <mxCell id="kCBjo1Qa4K1AtAQlMnZT-166" value="" style="endArrow=none;html=1;rounded=0;startArrow=oval;startFill=0;" edge="1" parent="1">
          <mxGeometry width="50" height="50" relative="1" as="geometry">
            <mxPoint x="500" y="114.41" as="sourcePoint" />
            <mxPoint x="440" y="114.41" as="targetPoint" />
            <Array as="points">
              <mxPoint x="480" y="114.91" />
            </Array>
          </mxGeometry>
        </mxCell>
        <mxCell id="kCBjo1Qa4K1AtAQlMnZT-167" value="" style="endArrow=none;html=1;rounded=0;startArrow=oval;startFill=0;" edge="1" parent="1">
          <mxGeometry width="50" height="50" relative="1" as="geometry">
            <mxPoint x="500" y="54.41" as="sourcePoint" />
            <mxPoint x="440" y="54.41" as="targetPoint" />
            <Array as="points">
              <mxPoint x="480" y="54.91" />
            </Array>
          </mxGeometry>
        </mxCell>
        <mxCell id="kCBjo1Qa4K1AtAQlMnZT-168" value="Percentual de coparticipação" style="text;html=1;align=center;verticalAlign=middle;whiteSpace=wrap;rounded=0;fontSize=14;" vertex="1" parent="1">
          <mxGeometry x="510" y="100" width="185" height="30" as="geometry" />
        </mxCell>
        <mxCell id="kCBjo1Qa4K1AtAQlMnZT-169" value="Identificação do&lt;br&gt;convênio (&lt;b&gt;PK)&lt;/b&gt;" style="text;html=1;align=center;verticalAlign=middle;whiteSpace=wrap;rounded=0;fontSize=14;" vertex="1" parent="1">
          <mxGeometry x="500" y="-70" width="130" height="30" as="geometry" />
        </mxCell>
        <mxCell id="kCBjo1Qa4K1AtAQlMnZT-170" value="Empresa" style="text;html=1;align=center;verticalAlign=middle;whiteSpace=wrap;rounded=0;fontSize=14;" vertex="1" parent="1">
          <mxGeometry x="510" y="10" width="60" height="30" as="geometry" />
        </mxCell>
        <mxCell id="kCBjo1Qa4K1AtAQlMnZT-171" value="Tipo" style="text;html=1;align=center;verticalAlign=middle;whiteSpace=wrap;rounded=0;fontSize=14;" vertex="1" parent="1">
          <mxGeometry x="510" y="40" width="40" height="30" as="geometry" />
        </mxCell>
        <mxCell id="kCBjo1Qa4K1AtAQlMnZT-172" value="Vencimento" style="text;html=1;align=center;verticalAlign=middle;whiteSpace=wrap;rounded=0;fontSize=14;" vertex="1" parent="1">
          <mxGeometry x="525" y="70" width="50" height="30" as="geometry" />
        </mxCell>
        <mxCell id="kCBjo1Qa4K1AtAQlMnZT-176" value="&lt;h3&gt;&lt;span style=&quot;font-size: 16px;&quot;&gt;Convênio&lt;/span&gt;&lt;/h3&gt;" style="shape=ext;margin=3;double=1;whiteSpace=wrap;html=1;align=center;" vertex="1" parent="1">
          <mxGeometry x="440" y="160" width="120" height="60" as="geometry" />
        </mxCell>
        <mxCell id="kCBjo1Qa4K1AtAQlMnZT-177" value="Possui" style="shape=rhombus;double=1;perimeter=rhombusPerimeter;whiteSpace=wrap;html=1;align=center;" vertex="1" parent="1">
          <mxGeometry x="440" y="300" width="120" height="60" as="geometry" />
        </mxCell>
        <mxCell id="kCBjo1Qa4K1AtAQlMnZT-178" value="Atende" style="shape=rhombus;perimeter=rhombusPerimeter;whiteSpace=wrap;html=1;align=center;" vertex="1" parent="1">
          <mxGeometry x="180" y="160" width="120" height="60" as="geometry" />
        </mxCell>
        <mxCell id="kCBjo1Qa4K1AtAQlMnZT-179" value="&lt;font style=&quot;font-size: 14px;&quot;&gt;Realiza&lt;/font&gt;" style="shape=rhombus;perimeter=rhombusPerimeter;whiteSpace=wrap;html=1;align=center;" vertex="1" parent="1">
          <mxGeometry x="-90" y="310" width="120" height="60" as="geometry" />
        </mxCell>
        <mxCell id="kCBjo1Qa4K1AtAQlMnZT-180" value="Marca" style="shape=rhombus;perimeter=rhombusPerimeter;whiteSpace=wrap;html=1;align=center;" vertex="1" parent="1">
          <mxGeometry x="170" y="470" width="120" height="60" as="geometry" />
        </mxCell>
        <mxCell id="kCBjo1Qa4K1AtAQlMnZT-189" value="(1,1)" style="endArrow=none;html=1;rounded=0;entryX=0.5;entryY=1;entryDx=0;entryDy=0;exitX=0.5;exitY=0;exitDx=0;exitDy=0;fontSize=14;" edge="1" parent="1">
          <mxGeometry x="-0.1111" width="50" height="50" relative="1" as="geometry">
            <mxPoint x="-30" y="310" as="sourcePoint" />
            <mxPoint x="-30" y="220" as="targetPoint" />
            <Array as="points" />
            <mxPoint as="offset" />
          </mxGeometry>
        </mxCell>
        <mxCell id="kCBjo1Qa4K1AtAQlMnZT-208" value="(1,N)" style="endArrow=none;html=1;rounded=0;entryX=0.5;entryY=1;entryDx=0;entryDy=0;exitX=0.5;exitY=0;exitDx=0;exitDy=0;verticalAlign=top;" edge="1" parent="1">
          <mxGeometry width="50" height="50" relative="1" as="geometry">
            <mxPoint x="-30" y="470" as="sourcePoint" />
            <mxPoint x="-30" y="370" as="targetPoint" />
          </mxGeometry>
        </mxCell>
        <mxCell id="kCBjo1Qa4K1AtAQlMnZT-209" value="" style="endArrow=none;html=1;rounded=0;entryX=0;entryY=0.5;entryDx=0;entryDy=0;exitX=1;exitY=0.5;exitDx=0;exitDy=0;" edge="1" parent="1">
          <mxGeometry width="50" height="50" relative="1" as="geometry">
            <mxPoint x="30" y="190" as="sourcePoint" />
            <mxPoint x="180" y="190" as="targetPoint" />
          </mxGeometry>
        </mxCell>
        <mxCell id="kCBjo1Qa4K1AtAQlMnZT-217" value="(1,1)" style="edgeLabel;html=1;align=center;verticalAlign=middle;resizable=0;points=[];" vertex="1" connectable="0" parent="kCBjo1Qa4K1AtAQlMnZT-209">
          <mxGeometry x="-0.0369" relative="1" as="geometry">
            <mxPoint x="-50" y="-20" as="offset" />
          </mxGeometry>
        </mxCell>
        <mxCell id="kCBjo1Qa4K1AtAQlMnZT-211" value="" style="endArrow=none;html=1;rounded=0;entryX=0.5;entryY=1;entryDx=0;entryDy=0;exitX=0.5;exitY=0;exitDx=0;exitDy=0;" edge="1" parent="1" source="kCBjo1Qa4K1AtAQlMnZT-177" target="kCBjo1Qa4K1AtAQlMnZT-176">
          <mxGeometry width="50" height="50" relative="1" as="geometry">
            <mxPoint x="380" y="350" as="sourcePoint" />
            <mxPoint x="380" y="250" as="targetPoint" />
          </mxGeometry>
        </mxCell>
        <mxCell id="kCBjo1Qa4K1AtAQlMnZT-239" value="(1,N)" style="edgeLabel;html=1;align=center;verticalAlign=middle;resizable=0;points=[];" vertex="1" connectable="0" parent="kCBjo1Qa4K1AtAQlMnZT-211">
          <mxGeometry x="0.1206" y="-1" relative="1" as="geometry">
            <mxPoint as="offset" />
          </mxGeometry>
        </mxCell>
        <mxCell id="kCBjo1Qa4K1AtAQlMnZT-212" value="" style="endArrow=none;html=1;rounded=0;entryX=0.5;entryY=1;entryDx=0;entryDy=0;exitX=0.5;exitY=0;exitDx=0;exitDy=0;" edge="1" parent="1" source="kCBjo1Qa4K1AtAQlMnZT-116" target="kCBjo1Qa4K1AtAQlMnZT-177">
          <mxGeometry width="50" height="50" relative="1" as="geometry">
            <mxPoint x="430" y="460" as="sourcePoint" />
            <mxPoint x="430" y="360" as="targetPoint" />
          </mxGeometry>
        </mxCell>
        <mxCell id="kCBjo1Qa4K1AtAQlMnZT-238" value="(1,1)" style="edgeLabel;html=1;align=center;verticalAlign=middle;resizable=0;points=[];" vertex="1" connectable="0" parent="kCBjo1Qa4K1AtAQlMnZT-212">
          <mxGeometry x="-0.1315" y="1" relative="1" as="geometry">
            <mxPoint as="offset" />
          </mxGeometry>
        </mxCell>
        <mxCell id="kCBjo1Qa4K1AtAQlMnZT-213" value="" style="endArrow=none;html=1;rounded=0;entryX=0;entryY=0.5;entryDx=0;entryDy=0;exitX=1;exitY=0.5;exitDx=0;exitDy=0;" edge="1" parent="1">
          <mxGeometry width="50" height="50" relative="1" as="geometry">
            <mxPoint x="290" y="500" as="sourcePoint" />
            <mxPoint x="440" y="500" as="targetPoint" />
          </mxGeometry>
        </mxCell>
        <mxCell id="kCBjo1Qa4K1AtAQlMnZT-231" value="(1,1)" style="edgeLabel;html=1;align=center;verticalAlign=middle;resizable=0;points=[];" vertex="1" connectable="0" parent="kCBjo1Qa4K1AtAQlMnZT-213">
          <mxGeometry x="-0.0996" relative="1" as="geometry">
            <mxPoint x="63" y="-15" as="offset" />
          </mxGeometry>
        </mxCell>
        <mxCell id="kCBjo1Qa4K1AtAQlMnZT-214" value="" style="endArrow=none;html=1;rounded=0;entryX=0;entryY=0.5;entryDx=0;entryDy=0;exitX=1;exitY=0.5;exitDx=0;exitDy=0;" edge="1" parent="1" source="kCBjo1Qa4K1AtAQlMnZT-117" target="kCBjo1Qa4K1AtAQlMnZT-180">
          <mxGeometry width="50" height="50" relative="1" as="geometry">
            <mxPoint x="90" y="530" as="sourcePoint" />
            <mxPoint x="90" y="430" as="targetPoint" />
          </mxGeometry>
        </mxCell>
        <mxCell id="kCBjo1Qa4K1AtAQlMnZT-215" value="(N,1)" style="edgeLabel;html=1;align=center;verticalAlign=middle;resizable=0;points=[];" vertex="1" connectable="0" parent="kCBjo1Qa4K1AtAQlMnZT-214">
          <mxGeometry x="0.0824" y="5" relative="1" as="geometry">
            <mxPoint x="-35" y="-10" as="offset" />
          </mxGeometry>
        </mxCell>
        <mxCell id="kCBjo1Qa4K1AtAQlMnZT-221" value="(1,N)" style="endArrow=none;html=1;rounded=0;exitX=1;exitY=0.5;exitDx=0;exitDy=0;entryX=0;entryY=0.5;entryDx=0;entryDy=0;" edge="1" parent="1">
          <mxGeometry x="0.7" y="20" width="50" height="50" relative="1" as="geometry">
            <mxPoint x="301" y="189.41" as="sourcePoint" />
            <mxPoint x="441" y="190" as="targetPoint" />
            <Array as="points">
              <mxPoint x="370" y="190" />
            </Array>
            <mxPoint as="offset" />
          </mxGeometry>
        </mxCell>
        <mxCell id="kCBjo1Qa4K1AtAQlMnZT-240" value="" style="endArrow=none;html=1;rounded=0;startArrow=oval;startFill=0;" edge="1" parent="1">
          <mxGeometry width="50" height="50" relative="1" as="geometry">
            <mxPoint x="500" y="-5.59" as="sourcePoint" />
            <mxPoint x="440" y="-5.59" as="targetPoint" />
            <Array as="points">
              <mxPoint x="480" y="-5.09" />
            </Array>
          </mxGeometry>
        </mxCell>
        <mxCell id="kCBjo1Qa4K1AtAQlMnZT-241" value="CPF (&lt;b&gt;FK&lt;/b&gt;)" style="text;html=1;align=center;verticalAlign=middle;whiteSpace=wrap;rounded=0;fontSize=14;" vertex="1" parent="1">
          <mxGeometry x="515" y="-20" width="65" height="30" as="geometry" />
        </mxCell>
        <mxCell id="kCBjo1Qa4K1AtAQlMnZT-242" value="" style="endArrow=none;html=1;rounded=0;startArrow=oval;startFill=0;" edge="1" parent="1">
          <mxGeometry width="50" height="50" relative="1" as="geometry">
            <mxPoint x="-30" y="694.29" as="sourcePoint" />
            <mxPoint x="-90" y="694.29" as="targetPoint" />
            <Array as="points">
              <mxPoint x="-50" y="694.79" />
            </Array>
          </mxGeometry>
        </mxCell>
        <mxCell id="kCBjo1Qa4K1AtAQlMnZT-243" value="CPF (&lt;b&gt;FK&lt;/b&gt;)" style="text;html=1;align=center;verticalAlign=middle;whiteSpace=wrap;rounded=0;fontSize=14;" vertex="1" parent="1">
          <mxGeometry x="-20" y="680" width="65" height="30" as="geometry" />
        </mxCell>
        <mxCell id="kCBjo1Qa4K1AtAQlMnZT-244" value="" style="endArrow=none;html=1;rounded=0;startArrow=oval;startFill=0;" edge="1" parent="1">
          <mxGeometry width="50" height="50" relative="1" as="geometry">
            <mxPoint x="-30" y="614.29" as="sourcePoint" />
            <mxPoint x="-90" y="614.29" as="targetPoint" />
            <Array as="points">
              <mxPoint x="-50" y="614.79" />
            </Array>
          </mxGeometry>
        </mxCell>
        <mxCell id="kCBjo1Qa4K1AtAQlMnZT-245" value="&lt;font style=&quot;font-size: 14px;&quot;&gt;CRM (&lt;b&gt;FK&lt;/b&gt;)&lt;/font&gt;" style="text;html=1;align=center;verticalAlign=middle;whiteSpace=wrap;rounded=0;" vertex="1" parent="1">
          <mxGeometry x="-20" y="640" width="70" height="30" as="geometry" />
        </mxCell>
        <mxCell id="kCBjo1Qa4K1AtAQlMnZT-247" value="" style="endArrow=none;html=1;rounded=0;startArrow=oval;startFill=0;" edge="1" parent="1">
          <mxGeometry width="50" height="50" relative="1" as="geometry">
            <mxPoint x="-30" y="724.29" as="sourcePoint" />
            <mxPoint x="-90" y="724.29" as="targetPoint" />
            <Array as="points">
              <mxPoint x="-50" y="724.79" />
            </Array>
          </mxGeometry>
        </mxCell>
        <mxCell id="kCBjo1Qa4K1AtAQlMnZT-248" value="Identificação do&lt;br&gt;convênio (&lt;b&gt;F&lt;/b&gt;&lt;b&gt;K&lt;/b&gt;)" style="text;html=1;align=center;verticalAlign=middle;whiteSpace=wrap;rounded=0;fontSize=14;fontStyle=0" vertex="1" parent="1">
          <mxGeometry x="-35" y="600" width="130" height="30" as="geometry" />
        </mxCell>
      </root>
    </mxGraphModel>
  </diagram>
</mxfile>
